<?xml version="1.0" encoding="UTF-8"?>
<svg id="Layer_1" xmlns="http://www.w3.org/2000/svg" version="1.1" viewBox="0 0 913.4 565">
  <!-- Generator: Adobe Illustrator 30.1.0, SVG Export Plug-In . SVG Version: 2.1.1 Build 136)  -->
  <g>
    <path d="M105.4,473.6h-37l-31.9-107.2h33.3l5.2,19.2c1.8,6.4,3.5,12.7,5.1,18.9,1.6,6.2,2.9,11.9,3.9,17.1.4,1.8.8,3.5,1,4.9.3,1.4.5,2.9.7,4.3.2,1.4.4,2.9.6,4.5.2,1.6.5,3.5.8,5.6.3-2.3.6-4.2.8-5.8.2-1.6.5-3.1.7-4.6.3-1.4.6-2.9.9-4.4.3-1.5.7-3.3,1.1-5.3,1.1-4.6,2.4-10.1,4-16.4,1.6-6.3,3.2-12.6,4.8-18.7l5.2-19.3h33.7l-33,107.2Z"/>
    <path d="M238.1,450c-2.6,5.5-6,10.3-10.4,14.2-4.3,3.9-9.5,6.9-15.5,9-6,2.1-12.5,3.1-19.6,3.1s-15.2-1.4-21.8-4.1c-6.6-2.7-12.3-6.6-17-11.6-4.7-5-8.4-10.9-11-17.8-2.6-6.9-3.9-14.5-3.9-22.9s1.3-15.7,4-22.5c2.7-6.9,6.4-12.8,11.3-17.7,4.8-4.9,10.6-8.8,17.2-11.6,6.7-2.8,14-4.2,21.9-4.2s12.7,1.1,18.4,3.2c5.7,2.1,10.8,5.1,15.1,8.9,4.3,3.8,7.8,8.2,10.5,13.4,2.6,5.2,4.2,10.8,4.6,16.8h-31.9c-.9-4.8-2.8-8.5-5.7-11.1-3-2.6-6.8-3.9-11.7-3.9s-11.5,2.6-15.2,7.6c-3.7,5.1-5.6,12.2-5.6,21.2s1.9,15.9,5.6,21c3.7,5.1,8.8,7.6,15.2,7.6,9.8,0,15.6-5.7,17.4-17.2h32.5c-.4,6.8-1.9,12.9-4.5,18.4Z"/>
    <path d="M352.8,440.3c-.3,2.8-.8,5.5-1.7,8-1.9,6.7-5.4,12.2-10.5,16.6-4.2,3.8-9.2,6.4-15.1,8.1-5.9,1.6-13,2.4-21.3,2.4-21.5,0-35.9-6.3-43.3-19-1-1.7-1.8-3.5-2.5-5.2-.7-1.8-1.3-3.7-1.7-5.8-.4-2.1-.7-4.4-.9-7-.2-2.6-.2-5.5-.2-8.9v-63.1h32.9v65.7c0,5.7,1.3,9.9,3.9,12.6,2.6,2.7,6.8,4,12.5,4,10.3,0,15.5-5.5,15.5-16.6v-65.7h32.9v63.4c0,4.2-.1,7.7-.4,10.5Z"/>
    <path d="M370.5,473.6v-107.2h32.9v79.2h47.7v28h-80.5Z"/>
    <path d="M517.8,393.9v79.7h-32.9v-79.7h-30v-27.5h92.8v27.5h-30Z"/>
    <path d="M657.2,440.3c-.3,2.8-.8,5.5-1.7,8-1.9,6.7-5.4,12.2-10.5,16.6-4.2,3.8-9.2,6.4-15.1,8.1-5.9,1.6-13,2.4-21.3,2.4-21.5,0-35.9-6.3-43.3-19-1-1.7-1.8-3.5-2.5-5.2-.7-1.8-1.3-3.7-1.7-5.8-.4-2.1-.7-4.4-.9-7-.2-2.6-.2-5.5-.2-8.9v-63.1h32.9v65.7c0,5.7,1.3,9.9,3.9,12.6,2.6,2.7,6.8,4,12.5,4,10.3,0,15.5-5.5,15.5-16.6v-65.7h32.9v63.4c0,4.2-.1,7.7-.4,10.5Z"/>
    <path d="M741.6,473.6c-.5-1.3-.9-2.5-1.1-3.6-.2-1.1-.5-3.2-.8-6.4l-.6-6.1c-.4-4.3-1-7.8-1.8-10.6-.8-2.8-1.8-5-3.1-6.6-1.3-1.6-3.1-2.7-5.2-3.4-2.1-.6-4.8-1-8-1h-13.8v37.7h-32.7v-107.2h54.8c4.4,0,8.3.2,11.7.6,3.4.4,6.4,1.1,9.1,1.9,2.7.9,5.1,2,7.2,3.5,2.1,1.4,4.1,3.2,5.9,5.2,4.9,5.4,7.4,12.1,7.4,20.3s-1.4,11.2-4.3,15.9c-2.8,4.7-6.7,8.2-11.5,10.3,9,3,14.2,11.9,15.6,26.6l1.1,11.3c.6,5.7,1.4,9.3,2.3,10.8l.5.8h-32.5ZM738.4,402.1c0-7.3-5-11-15.1-11h-16.3v21.9h18c8.9,0,13.4-3.6,13.4-11Z"/>
    <path d="M786.4,473.6v-107.2h88.9v25.4h-56.8v14.5h51.7v23.8h-51.7v16.7h58.5v26.7h-90.5Z"/>
  </g>
  <g>
    <path d="M254.6,551.3h-14.9l-12.9-43.2h13.4l2.1,7.7c.7,2.6,1.4,5.1,2,7.6.6,2.5,1.2,4.8,1.6,6.9.2.7.3,1.4.4,2,.1.6.2,1.2.3,1.7,0,.6.2,1.2.3,1.8,0,.6.2,1.4.3,2.3.1-.9.2-1.7.3-2.3,0-.6.2-1.3.3-1.8.1-.6.2-1.2.4-1.8.1-.6.3-1.3.5-2.1.4-1.9,1-4.1,1.6-6.6.6-2.6,1.3-5.1,1.9-7.5l2.1-7.8h13.6l-13.3,43.2Z"/>
    <path d="M285.5,551.3c-.2-.6-.3-1-.3-1.3,0-.3,0-.6-.1-1.1-1.3,1.2-2.7,2.1-4.3,2.6-1.6.5-3.5.8-5.7.8-3.6,0-6.4-.8-8.4-2.5-2-1.7-3-4.1-3-7.2s1.4-6.1,4.2-7.6c1-.5,2.1-1,3.3-1.3,1.2-.3,2.8-.7,4.9-1l4.7-.7c1.8-.3,3-.6,3.6-1,.6-.4.9-1.1.9-2,0-1.9-1.5-2.9-4.4-2.9s-2.7.3-3.4.8c-.7.5-1.1,1.4-1.3,2.7h-11c.1-7,5.3-10.4,15.6-10.4s6.1.3,8.4,1c2.3.7,4.1,1.7,5.2,3,.4.5.8,1,1.1,1.4.3.5.5,1,.6,1.6.2.6.3,1.3.3,2.1,0,.8,0,1.7,0,2.8s0,1.2,0,2.3c0,1.1,0,2.2,0,3.3,0,1.3,0,2.4,0,3.2v2c0,1.3,0,2.3,0,3.2,0,.9.1,1.7.2,2.4.1.7.2,1.4.4,2,.2.6.4,1.2.6,1.8h-12.1ZM285,536.5c-.5.4-1.1.7-1.8.9-.7.2-1.7.5-3,.8-1,.2-1.8.4-2.4.6-.6.2-1.1.5-1.5.7-.3.3-.6.6-.7,1-.1.4-.2.9-.2,1.5,0,1.1.3,2,1,2.6.7.6,1.6.9,2.8.9,1.9,0,3.3-.5,4.3-1.6,1-1.1,1.5-2.6,1.5-4.5v-3Z"/>
    <path d="M334.1,552.2c-.3,1.3-.8,2.4-1.6,3.6-1.3,2.1-3.2,3.6-5.5,4.6s-5.4,1.5-9.1,1.5c-9.9,0-15.3-3.3-16.1-10h11.2c.3,1.2.8,2.1,1.6,2.6s1.9.8,3.4.8,3.3-.4,4-1.3c.7-.9,1-2.6,1-5v-3.8c-1.2,1.4-2.5,2.4-3.9,3-1.4.6-3.1.9-5,.9-4.2,0-7.5-1.3-9.8-3.9-2.4-2.6-3.5-6.2-3.5-10.9s.3-4.4.9-6.2c.6-1.9,1.5-3.4,2.7-4.8,1.2-1.3,2.6-2.3,4.2-3.1,1.6-.7,3.5-1.1,5.5-1.1s3.8.4,5.1,1.1c1.3.7,2.5,1.9,3.7,3.6v-3.8h11.7v27.3c0,2-.2,3.7-.5,4.9ZM323.1,534.4c0-2.1-.5-3.7-1.4-4.8-.9-1.1-2.2-1.7-3.9-1.7s-3,.5-4,1.6c-1,1.1-1.4,2.6-1.4,4.5,0,4.4,1.8,6.6,5.4,6.6s3-.5,3.9-1.6c.9-1.1,1.4-2.6,1.4-4.5Z"/>
    <path d="M350.4,537.8c0,4.8,2.2,7.1,6.5,7.1s2.4-.2,3.2-.7c.8-.5,1.6-1.3,2.3-2.4h10.8c-2.3,6.8-7.7,10.2-16.2,10.2s-5.1-.4-7.2-1.1c-2.2-.8-4-1.8-5.6-3.2-1.5-1.4-2.7-3.1-3.6-5.1s-1.3-4.2-1.3-6.6.4-4.7,1.3-6.8c.8-2.1,2-3.8,3.6-5.3,1.5-1.5,3.4-2.7,5.5-3.5,2.1-.8,4.4-1.2,6.9-1.2s5.1.4,7.2,1.3,4,2.1,5.5,3.7c1.5,1.6,2.6,3.5,3.4,5.8.8,2.3,1.2,4.9,1.2,7.8h0c0,.1-23.6.1-23.6.1ZM361,527.8c-1.1-1-2.5-1.5-4.3-1.5-3.5,0-5.6,2-6.2,5.9h12.3c-.1-1.9-.7-3.4-1.8-4.4Z"/>
    <path d="M379.3,551.3v-43.2h12v43.2h-12Z"/>
    <path d="M398.4,515.8v-8.3h12v8.3h-12ZM398.4,551.3v-31.3h12v31.3h-12Z"/>
    <path d="M447.2,541.1c0,3.5-1.4,6.2-4.2,8.1-2.8,1.9-6.6,2.9-11.6,2.9-10,0-15.3-3.7-15.9-11.2h11.4c.1,1.3.6,2.3,1.3,2.9.7.6,1.9.9,3.4.9s2.2-.2,2.9-.7c.7-.5,1-1.1,1-1.8s0-.7-.2-1c-.1-.3-.4-.5-.8-.7-.4-.2-1-.4-1.8-.6-.8-.2-1.9-.5-3.4-.8-1.4-.3-2.5-.6-3.5-.8-.9-.2-1.7-.4-2.4-.6-.7-.2-1.3-.4-1.8-.6-.5-.2-1-.5-1.5-.8-1.3-.7-2.2-1.7-2.9-3-.7-1.3-1-2.7-1-4.2,0-3.2,1.3-5.7,3.8-7.4,2.5-1.7,6.2-2.6,11-2.6s8.8.8,11.2,2.4c2.4,1.6,3.8,4.2,4.2,7.7h-10.9c-.2-1.1-.6-1.9-1.2-2.3-.6-.4-1.6-.6-3-.6-2.2,0-3.4.6-3.4,1.9s0,.7.2.9c.2.2.5.5.9.7.5.2,1.2.4,2.1.6.9.2,2.1.5,3.7.7,3.4.6,5.9,1.4,7.7,2.3,1.8.9,3,2.1,3.7,3.5.6,1.3.9,2.7.9,4.2Z"/>
    <path d="M471.9,540.2v-10.3h19v10.3h-19Z"/>
    <path d="M543.9,551.3l-10.8-18.4-.8-1.6-.8-1.6-1.8-4c.2,2.1.4,4,.5,5.7.1,1.7.2,3.3.2,4.9v15h-12.7v-43.2h13l9.3,16.2c.3.6.7,1.2,1,1.7.3.5.6,1.1.9,1.8.3.6.7,1.3,1.1,2.1.4.8.9,1.8,1.5,3-.2-2.1-.4-3.9-.5-5.5-.1-1.6-.2-3.2-.2-4.9v-14.4c0,0,12.7,0,12.7,0v43.2h-12.7Z"/>
    <path d="M583.3,551.3c-.2-.6-.3-1-.3-1.3,0-.3,0-.6-.1-1.1-1.3,1.2-2.7,2.1-4.3,2.6-1.6.5-3.5.8-5.7.8-3.6,0-6.4-.8-8.4-2.5-2-1.7-3-4.1-3-7.2s1.4-6.1,4.2-7.6c1-.5,2.1-1,3.3-1.3,1.2-.3,2.8-.7,4.9-1l4.7-.7c1.8-.3,3-.6,3.6-1,.6-.4.9-1.1.9-2,0-1.9-1.5-2.9-4.4-2.9s-2.7.3-3.4.8c-.7.5-1.1,1.4-1.3,2.7h-11c.1-7,5.3-10.4,15.6-10.4s6.1.3,8.4,1c2.3.7,4.1,1.7,5.2,3,.4.5.8,1,1.1,1.4.3.5.5,1,.6,1.6.2.6.3,1.3.3,2.1,0,.8,0,1.7,0,2.8s0,1.2,0,2.3c0,1.1,0,2.2,0,3.3,0,1.3,0,2.4,0,3.2v2c0,1.3,0,2.3,0,3.2s.1,1.7.2,2.4c.1.7.2,1.4.4,2,.2.6.4,1.2.6,1.8h-12.1ZM582.9,536.5c-.5.4-1.1.7-1.8.9-.7.2-1.7.5-3,.8-1,.2-1.8.4-2.4.6-.6.2-1.1.5-1.5.7-.3.3-.6.6-.7,1s-.2.9-.2,1.5c0,1.1.3,2,1,2.6.7.6,1.6.9,2.8.9,1.9,0,3.3-.5,4.3-1.6,1-1.1,1.5-2.6,1.5-4.5v-3Z"/>
    <path d="M620.9,551.3l-6.6-11.4-2.1,2v9.4h-11.9v-43.2h11.9v19c0,0-.2,2.5-.2,2.5.5-.8.9-1.4,1.2-1.8.3-.4.6-.9,1.1-1.3l5.5-6.6h13.5l-11.2,11.9,13,19.5h-14.2Z"/>
    <path d="M637.8,515.8v-8.3h12v8.3h-12ZM637.8,551.3v-31.3h12v31.3h-12Z"/>
    <path d="M686.6,541.1c0,3.5-1.4,6.2-4.2,8.1-2.8,1.9-6.6,2.9-11.6,2.9-10,0-15.3-3.7-15.9-11.2h11.4c.1,1.3.6,2.3,1.3,2.9.7.6,1.9.9,3.4.9s2.2-.2,2.9-.7,1-1.1,1-1.8,0-.7-.2-1c-.1-.3-.4-.5-.8-.7-.4-.2-1-.4-1.8-.6-.8-.2-1.9-.5-3.4-.8-1.4-.3-2.5-.6-3.5-.8-.9-.2-1.7-.4-2.4-.6-.7-.2-1.3-.4-1.8-.6-.5-.2-1-.5-1.5-.8-1.3-.7-2.2-1.7-2.9-3-.7-1.3-1-2.7-1-4.2,0-3.2,1.3-5.7,3.8-7.4s6.2-2.6,11-2.6,8.8.8,11.2,2.4c2.4,1.6,3.8,4.2,4.2,7.7h-10.9c-.2-1.1-.6-1.9-1.2-2.3-.6-.4-1.6-.6-3-.6-2.2,0-3.4.6-3.4,1.9s0,.7.2.9c.2.2.5.5.9.7.5.2,1.2.4,2.1.6.9.2,2.1.5,3.7.7,3.4.6,5.9,1.4,7.7,2.3,1.8.9,3,2.1,3.7,3.5.6,1.3.9,2.7.9,4.2Z"/>
  </g>
  <g>
    <path d="M238,128.8s83.2-6.6,147.9,71.9c0,0,53-181.3,289.5-197.7v63.6s-160.3-3.4-228.2,148.8c0,0-23,44.4-21.6,100.8h-62.7s1.8-113.9-124.9-125.2v-62.2h0Z"/>
    <path d="M487.8,318.6s-2.9-80,62.7-138.1c0,0,50.1-48.3,124.9-48.9v61.6s-51.2-3.4-93.8,41.5c-.4.4-33.4,33.4-31.1,84.1h-62.7,0Z"/>
    <path d="M613.2,318.6h62.2v-64.5s-58.2,4.6-62.2,64.5Z"/>
  </g>
</svg>