<?xml version="1.0" encoding="UTF-8"?>
<svg id="Layer_1" xmlns="http://www.w3.org/2000/svg" version="1.1" viewBox="0 0 346 249.7">
  <!-- Generator: Adobe Illustrator 30.1.0, SVG Export Plug-In . SVG Version: 2.1.1 Build 136)  -->
  <path d="M0,99.5s65.8-5.2,117,56.9c0,0,41.9-143.4,229-156.4v50.3s-126.8-2.7-180.5,117.7c0,0-18.2,35.1-17.1,79.7h-49.6s1.4-90.1-98.8-99v-49.2h0Z"/>
  <path d="M197.6,249.6s-2.3-63.3,49.6-109.2c0,0,39.6-38.2,98.8-38.7v48.7s-40.5-2.7-74.2,32.8c-.3.3-26.4,26.4-24.6,66.5h-49.6,0Z"/>
  <path d="M296.8,249.6h49.2v-51s-46,3.6-49.2,51Z"/>
</svg>