<?xml version="1.0" encoding="UTF-8"?>
<svg id="Layer_1" xmlns="http://www.w3.org/2000/svg" version="1.1" viewBox="0 0 400 400">
  <!-- Generator: Adobe Illustrator 30.1.0, SVG Export Plug-In . SVG Version: 2.1.1 Build 136)  -->
  <defs>
    <style>
      .st0 {
        fill: #fff;
      }

      .st1 {
        fill: #fc0606;
      }
    </style>
  </defs>
  <rect class="st0" x="28.9" y="17.5" width="346" height="294.9"/>
  <path d="M28.9,164.6s65.8-5.2,117,56.9c0,0,41.9-143.4,229-156.4v50.3s-126.8-2.7-180.5,117.7c0,0-18.2,35.1-17.1,79.7h-49.6s1.4-90.1-98.8-99v-49.2Z"/>
  <path d="M226.4,314.8s-2.3-63.3,49.6-109.2c0,0,39.6-38.2,98.8-38.7v48.7s-40.5-2.7-74.2,32.8-26.4,26.4-24.6,66.5h-49.6Z"/>
  <path d="M325.7,314.8h49.2v-51s-46,3.6-49.2,51Z"/>
  <g>
    <path class="st1" d="M57.7,375.5h-9.8l-19.1-52.8h10.3l15.6,43.2,3,9.6ZM80.6,322.7l-16.9,46.8-5.3-13.8,11.9-33h10.3Z"/>
    <path class="st1" d="M106.2,331.4c-2,0-3.9.4-5.7,1.1-1.8.7-3.4,1.7-4.9,3-1.4,1.3-2.7,2.7-3.7,4.4-1,1.7-1.7,3.6-2.1,5.6h-9.8c.8-6,3.2-11.2,7.4-15.6,2.5-2.6,5.4-4.6,8.5-6,3.2-1.4,6.6-2.1,10.1-2.1,5.3,0,10.2,1.5,14.4,4.4l-5.4,8c-2.6-1.9-5.6-2.8-9-2.8h0ZM106.2,367.1c3.3,0,6.3-.9,9-2.7l5.4,8c-4.3,2.9-9.1,4.4-14.4,4.4s-7-.7-10.1-2.1c-3.2-1.4-6-3.4-8.5-6.1-1.9-2-3.5-4.3-4.7-6.7-1.2-2.5-2-5.1-2.5-8h9.9c.4,1.9,1.2,3.7,2.2,5.3s2.3,3,3.7,4.2c1.4,1.2,3,2.1,4.7,2.8,1.7.7,3.5,1,5.4,1h0Z"/>
    <path class="st1" d="M134.4,352.3c0,2.8.8,5.4,2.4,7.6,1.6,2.3,3.6,3.9,6,4.9v10.1c-2.6-.6-5-1.6-7.2-3-2.2-1.4-4.1-3.1-5.7-5.1-1.6-2-2.9-4.2-3.8-6.7-.9-2.5-1.4-5.1-1.4-7.8v-29.6h9.6v29.6ZM171.2,322.8v29.5c0,3-.5,5.7-1.5,8.3-1,2.6-2.4,4.9-4.1,6.9-1.8,2-3.9,3.7-6.3,5.1-2.4,1.4-5,2.2-7.8,2.7v-9.9c2.9-.8,5.3-2.3,7.2-4.7,1.9-2.4,2.9-5.2,2.9-8.4v-29.5h9.6Z"/>
    <path class="st1" d="M178.6,375.5v-52.8h9.6v52.8h-9.6ZM196.4,375.5v-9.6h14.9v9.6h-14.9Z"/>
    <path class="st1" d="M237.9,322.8v9.6h-35.5v-9.6h35.5ZM215.6,375.5v-36.9h9.6v36.9h-9.6Z"/>
    <path class="st1" d="M250.8,352.3c0,2.8.8,5.4,2.4,7.6,1.6,2.3,3.6,3.9,6,4.9v10.1c-2.6-.6-5-1.6-7.2-3-2.2-1.4-4.1-3.1-5.7-5.1-1.6-2-2.9-4.2-3.8-6.7-.9-2.5-1.4-5.1-1.4-7.8v-29.6h9.6v29.6ZM287.6,322.8v29.5c0,3-.5,5.7-1.5,8.3-1,2.6-2.4,4.9-4.1,6.9-1.8,2-3.9,3.7-6.3,5.1-2.4,1.4-5,2.2-7.8,2.7v-9.9c2.9-.8,5.3-2.3,7.2-4.7,1.9-2.4,2.9-5.2,2.9-8.4v-29.5h9.6Z"/>
    <path class="st1" d="M332.1,375.5h-11.2l-11.2-19.1h0v-9.7h5.7c1.8-.2,3.4-1,4.6-2.4,1.2-1.4,1.9-3,1.9-4.8s-.7-3.6-2.1-5c-1.4-1.4-3.1-2.1-5.1-2.1h-9.9v43.2h-9.6v-52.8h19.5c2.3,0,4.5.4,6.6,1.3,2,.9,3.8,2.1,5.4,3.6,1.5,1.5,2.8,3.3,3.6,5.3.9,2,1.3,4.2,1.3,6.6,0,3.6-1,6.9-3.1,9.8-2.1,2.9-4.7,4.9-7.9,6l11.8,20.2Z"/>
    <path class="st1" d="M346.5,332.4v12h25.5v9.6h-35.1v-31.2h35.1v9.6h-25.5ZM372,365.9v9.6h-35.1v-9.6h35.1Z"/>
  </g>
</svg>