<?xml version="1.0" encoding="UTF-8"?>
<svg id="Layer_1" xmlns="http://www.w3.org/2000/svg" version="1.1" viewBox="0 0 400 400">
  <!-- Generator: Adobe Illustrator 30.1.0, SVG Export Plug-In . SVG Version: 2.1.1 Build 136)  -->
  <defs>
    <style>
      .st0 {
        fill: #fcfcfc;
      }

      .st1 {
        fill: #fc0606;
      }
    </style>
  </defs>
  <g>
    <path d="M-156.9,1421.4s-3.6-45.2,39.1-80.3c0,0-98.4-28.8-107.4-157.2h34.5s-1.9,87,80.8,123.9c0,0,24.1,12.5,54.7,11.7v34s-61.8-1-68,67.8h-33.8,0Z"/>
    <path d="M-53.8,1285.8s-43.5,1.6-75-34c0,0-26.2-27.2-26.6-67.8h33.4s-1.9,27.8,22.5,50.9,18.1,18.1,45.6,16.9v34h0Z"/>
    <path d="M-53.8,1217.6v-33.8h-35s2.5,31.6,35,33.8Z"/>
  </g>
  <g>
    <path class="st1" d="M-53.8,1032.8v31.9l-171.7,62.1v-33.5l140.4-50.7,31.2-9.8h0ZM-225.5,958.4l152.2,54.9-44.9,17.2-107.3-38.7v-33.5Z"/>
    <path class="st1" d="M-197.2,875.1c0,6.5,1.3,12.7,3.6,18.5,2.3,5.9,5.5,11.1,9.8,15.9,4.2,4.6,8.8,8.8,14.3,12,5.5,3.3,11.7,5.5,18.2,6.8v31.9c-19.5-2.6-36.4-10.4-50.7-24.1-8.5-8.1-15-17.6-19.5-27.6-4.6-10.4-6.8-21.5-6.8-32.8,0-17.2,4.9-33.2,14.3-46.8l26,17.6c-6.2,8.5-9.1,18.2-9.1,29.3h0v-.7ZM-81.2,875.1c0-10.7-2.9-20.5-8.8-29.3l26-17.6c9.4,14,14.3,29.6,14.3,46.8s-2.3,22.8-6.8,32.8c-4.6,10.4-11.1,19.5-19.8,27.6-6.5,6.2-14,11.4-21.8,15.3-8.1,3.9-16.6,6.5-26,8.1v-32.2c6.2-1.3,12-3.9,17.2-7.2,5.2-3.3,9.8-7.5,13.7-12,3.9-4.6,6.8-9.8,9.1-15.3,2.3-5.5,3.3-11.4,3.3-17.6h0l-.3.3Z"/>
    <path class="st1" d="M-129.3,783.5c9.1,0,17.6-2.6,24.7-7.8,7.5-5.2,12.7-11.7,15.9-19.5h32.8c-2,8.5-5.2,16.3-9.8,23.4-4.6,7.2-10.1,13.3-16.6,18.5-6.5,5.2-13.7,9.4-21.8,12.4-8.1,2.9-16.6,4.6-25.4,4.6h-96.2v-31.2h96.2v-.3ZM-225.2,663.8h95.9c9.8,0,18.5,1.6,27,4.9,8.5,3.3,15.9,7.8,22.4,13.3,6.5,5.9,12,12.7,16.6,20.5,4.6,7.8,7.2,16.3,8.8,25.4h-32.2c-2.6-9.4-7.5-17.2-15.3-23.4-7.8-6.2-16.9-9.4-27.3-9.4h-95.9v-31.2h0Z"/>
    <path class="st1" d="M-53.8,639.8h-171.7v-31.2H-53.8v31.2ZM-53.8,581.9h-31.2v-48.4h31.2v48.4Z"/>
    <path class="st1" d="M-225.2,447h31.2v115.4h-31.2v-115.4ZM-53.8,519.5h-120v-31.2H-53.8v31.2Z"/>
    <path class="st1" d="M-129.3,405c9.1,0,17.6-2.6,24.7-7.8,7.5-5.2,12.7-11.7,15.9-19.5h32.8c-2,8.5-5.2,16.3-9.8,23.4-4.6,7.2-10.1,13.3-16.6,18.5-6.5,5.2-13.7,9.4-21.8,12.4-8.1,2.9-16.6,4.6-25.4,4.6h-96.2v-31.2h96.2v-.3ZM-225.2,285.4h95.9c9.8,0,18.5,1.6,27,4.9,8.5,3.3,15.9,7.8,22.4,13.3,6.5,5.9,12,12.7,16.6,20.5,4.6,7.8,7.2,16.3,8.8,25.4h-32.2c-2.6-9.4-7.5-17.2-15.3-23.4-7.8-6.2-16.9-9.4-27.3-9.4h-95.9v-31.2h0Z"/>
    <path class="st1" d="M-53.8,140.7v36.4l-62.1,36.4h-31.5v-18.5c-.7-5.9-3.3-11.1-7.8-15s-9.8-6.2-15.6-6.2-11.7,2.3-16.3,6.8c-4.6,4.6-6.8,10.1-6.8,16.6v32.2H-53.5v31.2h-171.7v-63.4c0-7.5,1.3-14.6,4.2-21.5,2.9-6.5,6.8-12.4,11.7-17.6,4.9-4.9,10.7-9.1,17.2-11.7,6.5-2.9,13.7-4.2,21.5-4.2,11.7,0,22.4,3.3,31.9,10.1s15.9,15.3,19.5,25.7l65.7-38.4-.3,1Z"/>
    <path class="st1" d="M-194,93.9h39V11h31.2v114.1h-101.4V11h31.2v82.9ZM-85.1,11h31.2v114.1h-31.2V11Z"/>
  </g>
  <g>
    <rect x="-886.1" y="17.5" width="346" height="294.9"/>
    <path class="st0" d="M-886.1,164.6s65.8-5.2,117,56.9c0,0,41.9-143.4,229-156.4v50.3s-126.8-2.7-180.5,117.7c0,0-18.2,35.1-17.1,79.7h-49.6s1.4-90.1-98.8-99v-49.2h0Z"/>
    <path class="st0" d="M-688.6,314.8s-2.3-63.3,49.6-109.2c0,0,39.6-38.2,98.8-38.7v48.7s-40.5-2.7-74.2,32.8-26.4,26.4-24.6,66.5h-49.6,0Z"/>
    <path class="st0" d="M-589.3,314.8h49.2v-51s-46,3.6-49.2,51Z"/>
  </g>
  <g>
    <path class="st1" d="M-857.3,375.5h-9.8l-19.1-52.8h10.3l15.6,43.2,3,9.6h0ZM-834.4,322.7l-16.9,46.8-5.3-13.8,11.9-33h10.3Z"/>
    <path class="st1" d="M-808.8,331.4c-2,0-3.9.4-5.7,1.1-1.8.7-3.4,1.7-4.9,3-1.4,1.3-2.7,2.7-3.7,4.4-1,1.7-1.7,3.6-2.1,5.6h-9.8c.8-6,3.2-11.2,7.4-15.6,2.5-2.6,5.4-4.6,8.5-6,3.2-1.4,6.6-2.1,10.1-2.1,5.3,0,10.2,1.5,14.4,4.4l-5.4,8c-2.6-1.9-5.6-2.8-9-2.8h.2ZM-808.8,367.1c3.3,0,6.3-.9,9-2.7l5.4,8c-4.3,2.9-9.1,4.4-14.4,4.4s-7-.7-10.1-2.1c-3.2-1.4-6-3.4-8.5-6.1-1.9-2-3.5-4.3-4.7-6.7-1.2-2.5-2-5.1-2.5-8h9.9c.4,1.9,1.2,3.7,2.2,5.3s2.3,3,3.7,4.2c1.4,1.2,3,2.1,4.7,2.8,1.7.7,3.5,1,5.4,1h0Z"/>
    <path class="st1" d="M-780.6,352.3c0,2.8.8,5.4,2.4,7.6,1.6,2.3,3.6,3.9,6,4.9v10.1c-2.6-.6-5-1.6-7.2-3s-4.1-3.1-5.7-5.1c-1.6-2-2.9-4.2-3.8-6.7s-1.4-5.1-1.4-7.8v-29.6h9.6v29.6h.1ZM-743.8,322.8v29.5c0,3-.5,5.7-1.5,8.3-1,2.6-2.4,4.9-4.1,6.9-1.8,2-3.9,3.7-6.3,5.1-2.4,1.4-5,2.2-7.8,2.7v-9.9c2.9-.8,5.3-2.3,7.2-4.7,1.9-2.4,2.9-5.2,2.9-8.4v-29.5h9.6Z"/>
    <path class="st1" d="M-736.4,375.5v-52.8h9.6v52.8h-9.6ZM-718.6,375.5v-9.6h14.9v9.6h-14.9Z"/>
    <path class="st1" d="M-677.1,322.8v9.6h-35.5v-9.6h35.5ZM-699.4,375.5v-36.9h9.6v36.9h-9.6Z"/>
    <path class="st1" d="M-664.2,352.3c0,2.8.8,5.4,2.4,7.6,1.6,2.3,3.6,3.9,6,4.9v10.1c-2.6-.6-5-1.6-7.2-3s-4.1-3.1-5.7-5.1c-1.6-2-2.9-4.2-3.8-6.7-.9-2.5-1.4-5.1-1.4-7.8v-29.6h9.6v29.6h0ZM-627.4,322.8v29.5c0,3-.5,5.7-1.5,8.3-1,2.6-2.4,4.9-4.1,6.9-1.8,2-3.9,3.7-6.3,5.1s-5,2.2-7.8,2.7v-9.9c2.9-.8,5.3-2.3,7.2-4.7,1.9-2.4,2.9-5.2,2.9-8.4v-29.5h9.6,0Z"/>
    <path class="st1" d="M-582.9,375.5h-11.2l-11.2-19.1h0v-9.7h5.7c1.8-.2,3.4-1,4.6-2.4s1.9-3,1.9-4.8-.7-3.6-2.1-5-3.1-2.1-5.1-2.1h-9.9v43.2h-9.6v-52.8h19.5c2.3,0,4.5.4,6.6,1.3,2,.9,3.8,2.1,5.4,3.6,1.5,1.5,2.8,3.3,3.6,5.3.9,2,1.3,4.2,1.3,6.6,0,3.6-1,6.9-3.1,9.8s-4.7,4.9-7.9,6l11.8,20.2h-.3Z"/>
    <path class="st1" d="M-568.5,332.4v12h25.5v9.6h-35.1v-31.2h35.1v9.6h-25.5ZM-543,365.9v9.6h-35.1v-9.6h35.1Z"/>
  </g>
  <path d="M27,123.6s65.8-5.2,117,56.9c0,0,41.9-143.4,229-156.4v50.3s-126.8-2.7-180.5,117.7c0,0-18.2,35.1-17.1,79.7h-49.6s1.4-90.1-98.8-99v-49.2h0Z"/>
  <path d="M224.6,273.7s-2.3-63.3,49.6-109.2c0,0,39.6-38.2,98.8-38.7v48.7s-40.5-2.7-74.2,32.8c-.3.3-26.4,26.4-24.6,66.5h-49.6,0Z"/>
  <path d="M323.8,273.7h49.2v-51s-46,3.6-49.2,51Z"/>
  <g>
    <rect x="5.6" y="433.9" width="390.8" height="333.1"/>
    <path class="st0" d="M5.6,600s74.3-5.9,132.2,64.3c0,0,47.3-162,258.7-176.7v56.8s-143.2-3-203.9,132.9c0,0-20.6,39.6-19.3,90h-56s1.6-101.8-111.6-111.8v-55.6h0Z"/>
    <path class="st0" d="M228.7,769.7s-2.6-71.5,56-123.3c0,0,44.7-43.1,111.6-43.7v55s-45.7-3-83.8,37c-38.1,40.1-29.8,29.8-27.8,75.1h-56,0Z"/>
    <path class="st0" d="M340.8,769.7h55.6v-57.6s-52,4.1-55.6,57.6Z"/>
  </g>
  <g>
    <path class="st1" d="M65.1,348.8h-9.8l-19.1-52.8h10.3l15.6,43.2,3,9.6h0ZM88,296l-16.9,46.8-5.3-13.8,11.9-33h10.3Z"/>
    <path class="st1" d="M113.6,304.7c-2,0-3.9.4-5.7,1.1-1.8.7-3.4,1.7-4.9,3-1.4,1.3-2.7,2.7-3.7,4.4-1,1.7-1.7,3.6-2.1,5.6h-9.8c.8-6,3.2-11.2,7.4-15.6,2.5-2.6,5.4-4.6,8.5-6,3.2-1.4,6.6-2.1,10.1-2.1,5.3,0,10.2,1.5,14.4,4.4l-5.4,8c-2.6-1.9-5.6-2.8-9-2.8h.2ZM113.6,340.4c3.3,0,6.3-.9,9-2.7l5.4,8c-4.3,2.9-9.1,4.4-14.4,4.4s-7-.7-10.1-2.1c-3.2-1.4-6-3.4-8.5-6.1-1.9-2-3.5-4.3-4.7-6.7-1.2-2.5-2-5.1-2.5-8h9.9c.4,1.9,1.2,3.7,2.2,5.3s2.3,3,3.7,4.2c1.4,1.2,3,2.1,4.7,2.8,1.7.7,3.5,1,5.4,1h0Z"/>
    <path class="st1" d="M141.8,325.6c0,2.8.8,5.4,2.4,7.6,1.6,2.3,3.6,3.9,6,4.9v10.1c-2.6-.6-5-1.6-7.2-3s-4.1-3.1-5.7-5.1c-1.6-2-2.9-4.2-3.8-6.7s-1.4-5.1-1.4-7.8v-29.6h9.6v29.6h.1ZM178.6,296.1v29.5c0,3-.5,5.7-1.5,8.3-1,2.6-2.4,4.9-4.1,6.9-1.8,2-3.9,3.7-6.3,5.1-2.4,1.4-5,2.2-7.8,2.7v-9.9c2.9-.8,5.3-2.3,7.2-4.7,1.9-2.4,2.9-5.2,2.9-8.4v-29.5h9.6Z"/>
    <path class="st1" d="M186,348.8v-52.8h9.6v52.8h-9.6ZM203.8,348.8v-9.6h14.9v9.6h-14.9Z"/>
    <path class="st1" d="M245.3,296.1v9.6h-35.5v-9.6h35.5ZM223,348.8v-36.9h9.6v36.9h-9.6Z"/>
    <path class="st1" d="M258.2,325.6c0,2.8.8,5.4,2.4,7.6,1.6,2.3,3.6,3.9,6,4.9v10.1c-2.6-.6-5-1.6-7.2-3s-4.1-3.1-5.7-5.1c-1.6-2-2.9-4.2-3.8-6.7-.9-2.5-1.4-5.1-1.4-7.8v-29.6h9.6v29.6h0ZM295,296.1v29.5c0,3-.5,5.7-1.5,8.3-1,2.6-2.4,4.9-4.1,6.9-1.8,2-3.9,3.7-6.3,5.1s-5,2.2-7.8,2.7v-9.9c2.9-.8,5.3-2.3,7.2-4.7,1.9-2.4,2.9-5.2,2.9-8.4v-29.5h9.6,0Z"/>
    <path class="st1" d="M339.5,348.8h-11.2l-11.2-19.1h0v-9.7h5.7c1.8-.2,3.4-1,4.6-2.4s1.9-3,1.9-4.8-.7-3.6-2.1-5-3.1-2.1-5.1-2.1h-9.9v43.2h-9.6v-52.8h19.5c2.3,0,4.5.4,6.6,1.3,2,.9,3.8,2.1,5.4,3.6,1.5,1.5,2.8,3.3,3.6,5.3.9,2,1.3,4.2,1.3,6.6,0,3.6-1,6.9-3.1,9.8s-4.7,4.9-7.9,6l11.8,20.2h-.3Z"/>
    <path class="st1" d="M353.9,305.7v12h25.5v9.6h-35.1v-31.2h35.1v9.6h-25.5ZM379.4,339.2v9.6h-35.1v-9.6h35.1Z"/>
  </g>
</svg>